# Blender v3.5.0 OBJ File: 'Enemy_L_arm.blend'
# www.blender.org
mtllib Enemy_L_arm.mtl
o 立方体.002_立方体.003
v 0.506098 -0.968054 0.117277
v 0.163858 -0.118137 0.062881
v 0.506098 -0.968054 -0.117277
v 0.163858 -0.118137 -0.055828
v 0.718677 -0.868927 0.117277
v 0.221595 -0.002325 0.066205
v 0.718677 -0.868927 -0.117277
v 0.222079 -0.000864 -0.074473
v 0.011813 -0.110177 0.117114
v 0.011813 -0.110786 -0.129323
v 0.012307 0.041873 -0.136919
v 0.012663 0.042893 0.134808
v 0.612387 -0.918491 -0.117277
v 0.192968 -0.038908 -0.111051
v 0.612387 -0.918491 0.117277
v 0.192726 -0.038815 0.107774
v 0.010865 -0.013629 -0.171420
v 0.010623 -0.012461 0.143958
v 0.089942 0.035221 -0.128650
v 0.089526 0.033397 0.126161
v 0.087173 -0.113668 0.117196
v 0.087393 -0.113880 -0.117359
v 0.089982 -0.014077 -0.147704
v 0.089740 -0.013440 0.142582
v 0.506098 -0.968054 -0.000000
v 0.163858 -0.118137 0.000000
v 0.718677 -0.868927 -0.000000
v 0.221837 0.040413 0.000000
v 0.012183 -0.143421 -0.000163
v 0.012827 0.129266 -0.000163
v 0.010744 -0.012238 -0.000163
v 0.612387 -0.918491 -0.000000
v 0.086536 -0.129766 -0.000082
v 0.087787 0.098552 -0.000082
vt 0.694205 0.343103
vt 0.849057 0.388739
vt 0.694205 0.438970
vt 0.536869 0.573835
vt 0.694205 0.472379
vt 0.694205 0.568146
vt 0.333380 0.247236
vt 0.387530 0.070624
vt 0.429246 0.247236
vt 0.516917 0.379741
vt 0.361444 0.323870
vt 0.516917 0.283876
vt 0.095630 0.696226
vt 0.000000 0.600228
vt 0.095630 0.600384
vt 0.333606 0.025105
vt 0.222114 0.001165
vt 0.333734 0.000000
vt 0.882113 0.386805
vt 0.912338 0.480557
vt 0.891592 0.504233
vt 0.229708 0.388485
vt 0.181021 0.483602
vt 0.169849 0.388347
vt 0.344853 0.321456
vt 0.349102 0.247236
vt 0.354371 0.305498
vt 0.271720 0.266819
vt 0.180646 0.282659
vt 0.213132 0.247236
vt 0.532009 0.640044
vt 0.516917 0.678496
vt 0.521856 0.623695
vt 0.271955 0.503515
vt 0.235764 0.483936
vt 0.877911 0.497826
vt 0.849057 0.389455
vt 0.000000 0.504386
vt 0.095630 0.504543
vt 0.516917 0.475607
vt 0.359286 0.372865
vt 0.537777 0.624833
vt 0.694205 0.663913
vt 0.339698 0.475729
vt 0.291119 0.439928
vt 0.527588 0.540473
vt 0.339698 0.297297
vt 0.235696 0.292679
vt 0.291077 0.388654
vt 0.272531 0.070760
vt 0.333330 0.070050
vt 0.436918 0.026673
vt 0.291039 0.343132
vt 0.191260 0.504700
vt 0.860446 0.276394
vt 0.896385 0.279742
vt 0.871236 0.247236
vt 0.444228 0.001266
vt 0.191260 0.696382
vt 0.191260 0.600541
vt 0.237514 0.247236
vt 0.849057 0.291702
vt 0.694205 0.247236
vt 0.849057 0.343103
vt 0.000000 0.696069
vt 0.228623 0.026782
vt 0.912338 0.384383
vt 0.339698 0.267839
vt 0.530289 0.697522
vt 0.213565 0.504386
vt 0.349092 0.406681
vn -0.9276 -0.3735 0.0000
vn -0.0027 0.0058 -1.0000
vn 0.8674 0.4976 0.0000
vn -0.0251 0.0538 0.9982
vn 0.4226 -0.9063 0.0000
vn 0.3266 0.7959 -0.5098
vn -0.9999 -0.0119 -0.0009
vn 0.1737 -0.9473 0.2691
vn 0.0205 0.3309 0.9434
vn 0.2635 -0.3814 -0.8861
vn 0.1292 0.3576 -0.9249
vn -0.0124 -0.2452 0.9694
vn -0.9999 0.0147 0.0082
vn -0.0041 0.0088 1.0000
vn -0.0283 0.0607 -0.9978
vn 0.4576 -0.5582 0.6921
vn 0.4403 0.4240 -0.7914
vn 0.2590 -0.2871 -0.9222
vn 0.3719 0.3086 0.8754
vn 0.1487 -0.9889 0.0000
vn 0.3551 0.8181 -0.4523
vn 0.4081 0.8135 0.4143
vn 0.0525 -0.9896 -0.1337
vn -0.9999 0.0147 -0.0056
vn -0.0009 -0.9695 -0.2450
vn -0.9999 -0.0100 -0.0006
vn 0.1592 0.8782 0.4510
vn 0.8680 0.4966 0.0000
vn 0.5297 0.3413 -0.7765
vn 0.8376 0.4576 0.2985
vn -0.5473 -0.2525 0.7980
vn 0.1229 0.8911 -0.4369
vn -0.9999 -0.0110 -0.0000
vn -0.0460 -0.9896 0.1361
vn 0.1295 0.1571 0.9791
vn 0.1379 -0.2914 -0.9466
vn 0.2502 0.5064 -0.8252
vn 0.0135 -0.2647 0.9642
vn -0.9993 0.0367 -0.0008
vn 0.5758 0.3732 0.7275
vn -0.6135 -0.2873 -0.7356
vn 0.2562 -0.2435 0.9355
vn 0.3864 0.3328 -0.8602
vn 0.4738 -0.6141 -0.6312
vn 0.4670 0.4780 0.7439
vn 0.0384 -0.9900 0.1357
vn 0.3908 0.8283 -0.4015
vn 0.3419 0.7890 0.5106
vn -0.9996 0.0265 -0.0009
vn 0.1792 -0.9751 -0.1308
vn -0.9999 -0.0110 0.0001
vn 0.3257 0.7962 0.5099
vn 0.8487 0.4637 -0.2543
usemtl Material
s off
f 25/1/1 4/2/1 3/3/1
f 14/4/2 7/5/2 13/6/2
f 27/7/3 6/8/3 5/9/3
f 15/10/4 2/11/4 1/12/4
f 27/13/5 15/14/5 32/15/5
f 34/16/6 11/17/6 30/18/6
f 31/19/7 9/20/7 18/21/7
f 33/22/8 9/23/8 29/24/8
f 20/25/9 18/26/9 24/27/9
f 23/28/10 10/29/10 17/30/10
f 23/31/11 11/32/11 19/33/11
f 24/34/12 9/23/12 21/35/12
f 31/19/13 12/36/13 30/37/13
f 32/15/5 1/38/5 25/39/5
f 5/40/14 16/41/14 15/10/14
f 4/42/15 13/6/15 3/43/15
f 16/44/16 21/35/16 2/45/16
f 14/4/17 19/33/17 8/46/17
f 14/47/18 22/48/18 23/28/18
f 16/41/19 20/25/19 24/27/19
f 2/45/20 33/22/20 26/49/20
f 8/50/21 34/16/21 28/51/21
f 6/8/22 34/16/22 20/52/22
f 4/53/23 33/22/23 22/48/23
f 3/54/5 32/15/5 25/39/5
f 11/55/24 31/19/24 30/37/24
f 22/48/25 29/24/25 10/29/25
f 10/56/26 31/19/26 17/57/26
f 34/16/27 12/58/27 20/52/27
f 7/59/5 32/15/5 13/60/5
f 8/50/28 27/7/28 7/61/28
f 2/62/1 25/1/1 1/63/1
f 25/1/1 26/64/1 4/2/1
f 14/4/29 8/46/29 7/5/29
f 27/7/30 28/51/30 6/8/30
f 15/10/31 16/41/31 2/11/31
f 27/13/5 5/65/5 15/14/5
f 34/16/32 19/66/32 11/17/32
f 31/19/33 29/67/33 9/20/33
f 33/22/34 21/35/34 9/23/34
f 20/25/35 12/68/35 18/26/35
f 23/28/36 22/48/36 10/29/36
f 23/31/37 17/69/37 11/32/37
f 24/34/38 18/70/38 9/23/38
f 31/19/39 18/21/39 12/36/39
f 32/15/5 15/14/5 1/38/5
f 5/40/40 6/71/40 16/41/40
f 4/42/41 14/4/41 13/6/41
f 16/44/42 24/34/42 21/35/42
f 14/4/43 23/31/43 19/33/43
f 14/47/44 4/53/44 22/48/44
f 16/41/45 6/71/45 20/25/45
f 2/45/46 21/35/46 33/22/46
f 8/50/47 19/66/47 34/16/47
f 6/8/48 28/51/48 34/16/48
f 4/53/20 26/49/20 33/22/20
f 3/54/5 13/60/5 32/15/5
f 11/55/49 17/57/49 31/19/49
f 22/48/50 33/22/50 29/24/50
f 10/56/51 29/67/51 31/19/51
f 34/16/52 30/18/52 12/58/52
f 7/59/5 27/13/5 32/15/5
f 8/50/53 28/51/53 27/7/53
f 2/62/1 26/64/1 25/1/1
