# Blender v3.5.0 OBJ File: 'Enemy_Head.blend'
# www.blender.org
mtllib Enemy_Head.mtl
o 立方体
v 0.373871 0.213597 -0.382523
v 0.341189 0.732288 -0.382523
v 0.373871 0.213597 0.382523
v 0.341189 0.732288 0.382523
v -0.373871 0.213597 -0.382523
v -0.341189 0.732288 -0.382523
v -0.373871 0.213597 0.382523
v -0.341189 0.732288 0.382523
v 0.000000 0.198446 0.382523
v 0.000000 0.774358 0.382523
v 0.000000 0.198446 -0.382523
v 0.000000 0.774358 -0.382523
v 0.475532 0.496138 -0.382523
v 0.475532 0.496138 0.382523
v -0.475532 0.496138 0.382523
v -0.475532 0.496138 -0.382523
v 0.000000 0.496138 -0.382523
v 0.000000 0.496138 0.382523
v -0.229268 0.764271 0.382523
v -0.229268 0.202706 -0.382523
v -0.229268 0.202706 0.382523
v -0.229268 0.764271 -0.382523
v -0.229268 0.496138 -0.382523
v -0.229268 0.496138 0.382523
v 0.229268 0.202706 0.382523
v 0.229268 0.764271 -0.382523
v 0.229268 0.764271 0.382523
v 0.229268 0.202706 -0.382523
v 0.229268 0.496138 0.382523
v 0.229268 0.496138 -0.382523
v 0.458536 0.202052 0.000000
v 0.458536 0.767133 0.000000
v -0.458536 0.202052 0.000000
v -0.458536 0.767133 0.000000
v 0.000000 0.832556 0.000000
v 0.000000 0.156470 0.000000
v -0.593482 0.496138 0.000000
v 0.593482 0.496138 0.000000
v -0.229268 0.832556 0.000000
v -0.229268 0.159719 0.000000
v 0.229268 0.159719 0.000000
v 0.229268 0.832556 0.000000
v 0.458536 0.770982 0.191262
v -0.458536 0.213597 0.191262
v 0.579638 0.496138 0.191262
v 0.458536 0.213597 0.191262
v -0.458536 0.770982 0.191262
v 0.000000 0.832556 0.191262
v 0.000000 0.159719 0.191262
v -0.579638 0.496138 0.191262
v -0.229268 0.832556 0.191262
v -0.229268 0.159719 0.191262
v 0.229268 0.159719 0.191262
v 0.229268 0.832556 0.191262
v 0.458536 0.213597 -0.191262
v -0.458536 0.770982 -0.191262
v 0.000000 0.832556 -0.191262
v 0.000000 0.159719 -0.191262
v -0.579638 0.496138 -0.191262
v -0.229268 0.832556 -0.191262
v -0.229268 0.159719 -0.191262
v 0.229268 0.159719 -0.191262
v 0.229268 0.832556 -0.191262
v 0.458536 0.770982 -0.191262
v -0.458536 0.213597 -0.191262
v 0.579638 0.496138 -0.191262
v 0.421184 0.664347 -0.382523
v 0.421184 0.664347 0.382523
v -0.421184 0.664347 0.382523
v -0.421184 0.664347 -0.382523
v 0.000000 0.664347 -0.382523
v 0.000000 0.664347 0.382523
v -0.229268 0.664347 -0.382523
v -0.229268 0.664347 0.382523
v 0.229268 0.664347 0.382523
v 0.229268 0.664347 -0.382523
v -0.559234 0.664347 0.000000
v 0.559234 0.664347 0.000000
v -0.545826 0.664347 0.191262
v 0.545826 0.664347 0.191262
v 0.545826 0.664347 -0.191262
v -0.545826 0.664347 -0.191262
v 0.452077 0.327928 0.382523
v -0.452077 0.327928 0.382523
v -0.452077 0.327928 -0.382523
v 0.000000 0.327928 -0.382523
v 0.000000 0.327928 0.382523
v 0.452077 0.327928 -0.382523
v -0.229268 0.327928 0.382523
v -0.229268 0.327928 -0.382523
v 0.229268 0.327928 -0.382523
v 0.229268 0.327928 0.382523
v 0.557134 0.327928 0.000000
v -0.557134 0.327928 0.000000
v -0.541097 0.327928 0.191262
v 0.541097 0.327928 0.191262
v 0.541097 0.327928 -0.191262
v -0.541097 0.327928 -0.191262
vt 0.896986 0.033868
vt 0.914929 0.002279
vt 0.915138 0.036470
vt 0.535597 0.747305
vt 0.524830 0.724328
vt 0.536180 0.708190
vt 0.483910 0.683066
vt 0.516917 0.675452
vt 0.485840 0.700859
vt 0.409299 0.753374
vt 0.398532 0.730398
vt 0.409881 0.714259
vt 0.865717 0.066831
vt 0.896986 0.037356
vt 0.896986 0.066831
vt 0.482795 0.542866
vt 0.515687 0.520053
vt 0.515108 0.542866
vt 0.482795 0.636333
vt 0.514925 0.589599
vt 0.515108 0.636333
vt 0.865717 0.160297
vt 0.896986 0.113564
vt 0.896986 0.160297
vt 0.391572 0.846587
vt 0.408602 0.800102
vt 0.407906 0.846830
vt 0.517870 0.840517
vt 0.534900 0.794033
vt 0.534204 0.840761
vt 0.561701 0.841170
vt 0.589895 0.794852
vt 0.589198 0.841580
vt 0.435403 0.847240
vt 0.463597 0.800921
vt 0.462900 0.847650
vt 0.436796 0.753784
vt 0.464969 0.708782
vt 0.464293 0.754193
vt 0.928651 0.730282
vt 0.957521 0.759031
vt 0.930253 0.759031
vt 0.563094 0.747714
vt 0.591268 0.702713
vt 0.590591 0.748124
vt 0.970030 0.037544
vt 0.942856 0.004260
vt 0.970124 0.004260
vt 0.562398 0.794442
vt 0.462224 0.893061
vt 0.396460 0.869476
vt 0.407323 0.885945
vt 0.515687 0.659146
vt 0.865717 0.113564
vt 0.519262 0.747061
vt 0.436099 0.800512
vt 0.588522 0.886992
vt 0.522758 0.863406
vt 0.533621 0.879876
vt 0.896986 0.189773
vt 0.865717 0.207031
vt 0.482795 0.589599
vt 0.392964 0.753131
vt 0.420642 0.542866
vt 0.451718 0.589599
vt 0.420642 0.589599
vt 0.803179 0.160297
vt 0.834448 0.207031
vt 0.803179 0.207031
vt 0.803179 0.113564
vt 0.834448 0.066831
vt 0.834448 0.113564
vt 0.421757 0.683066
vt 0.451718 0.636333
vt 0.452903 0.683066
vt 0.941195 0.099961
vt 0.969318 0.068969
vt 0.968335 0.099577
vt 0.954096 0.668633
vt 0.927668 0.699674
vt 0.926956 0.668249
vt 0.834448 0.160297
vt 0.420642 0.636333
vt 0.421757 0.496133
vt 0.451718 0.542866
vt 0.803179 0.066831
vt 0.834448 0.020098
vt 0.423687 0.700859
vt 0.454764 0.703592
vt 0.485840 0.478340
vt 0.452903 0.496133
vt 0.454764 0.475607
vt 0.982057 0.632983
vt 1.000000 0.664572
vt 0.981849 0.667174
vt 0.771910 0.037356
vt 0.771910 0.066831
vt 0.391380 0.520053
vt 0.390801 0.542866
vt 0.390619 0.589599
vt 0.390801 0.636333
vt 0.771910 0.113564
vt 0.771910 0.160297
vt 0.954130 0.634965
vt 0.926863 0.634965
vt 0.391380 0.659146
vt 0.771910 0.189773
vt 0.942890 0.037928
vt 0.423687 0.478340
vt 0.516917 0.503747
vt 0.483910 0.496133
vt 0.939465 0.128326
vt 0.966733 0.128326
vt 0.955791 0.730666
vt 0.982583 0.698532
vt 0.954826 0.700002
vt 0.913442 0.098503
vt 0.914403 0.067828
vt 0.942160 0.069297
vt 0.560953 0.891362
vt 0.434655 0.897432
vt 0.437544 0.703592
vt 0.983544 0.729207
vt 0.563842 0.697522
vt 0.865717 0.003269
vt 0.865717 0.020098
vt 0.986304 0.097880
vt 0.984739 0.126740
vt 0.989037 0.066905
vt 0.987999 0.035847
vt 0.908987 0.666552
vt 0.908856 0.633379
vt 0.907949 0.697609
vt 0.865717 0.223859
vt 0.607449 0.871331
vt 0.609668 0.841885
vt 0.484763 0.754498
vt 0.484763 0.801237
vt 0.481151 0.877400
vt 0.483370 0.847955
vt 0.611061 0.748429
vt 0.611061 0.795168
vt 0.988130 0.002675
vt 0.609720 0.718931
vt 0.910682 0.728585
vt 0.912247 0.757445
vt 0.483422 0.725000
vt 0.903158 0.000000
vt 0.390619 0.799834
vt 0.516917 0.793765
vt 0.803179 0.020098
vt 0.993828 0.630705
vt 0.911539 0.126344
vt 0.985447 0.757049
vt 0.834448 0.000000
vt 0.834448 0.227128
vn 0.6909 0.5656 0.4503
vn 0.0000 0.0000 1.0000
vn -0.6909 0.5656 -0.4503
vn 0.0000 0.0000 -1.0000
vn -0.0733 -0.9730 -0.2187
vn 0.2599 0.9094 -0.3247
vn -0.0414 0.9410 -0.3360
vn 0.0181 -0.9755 -0.2192
vn -0.8995 -0.1254 -0.4186
vn 0.8995 -0.1254 0.4186
vn -0.2445 0.9103 -0.3341
vn 0.0000 -0.9801 -0.1985
vn 0.2276 -0.9685 -0.1008
vn 0.0000 0.9567 -0.2911
vn 0.0000 1.0000 0.0000
vn 0.2284 -0.9718 0.0587
vn -0.0142 -0.9998 0.0170
vn -0.2744 0.9614 -0.0193
vn 0.9715 -0.2226 -0.0815
vn -0.9715 -0.2226 0.0815
vn 0.0000 -1.0000 0.0000
vn 0.2594 0.9658 0.0000
vn -0.1816 -0.9834 0.0000
vn -0.7134 0.6989 0.0500
vn 0.7134 0.6989 -0.0500
vn -0.6909 0.5656 0.4503
vn -0.0733 -0.9730 0.2187
vn 0.2599 0.9094 0.3247
vn -0.0414 0.9410 0.3360
vn 0.0181 -0.9755 0.2192
vn -0.8995 -0.1254 0.4186
vn -0.2445 0.9103 0.3341
vn 0.0000 -0.9801 0.1985
vn 0.2276 -0.9685 0.1008
vn 0.0000 0.9567 0.2911
vn 0.9715 -0.2226 0.0815
vn 0.7134 0.6989 0.0500
vn 0.6909 0.5656 -0.4503
vn 0.8995 -0.1254 -0.4186
vn 0.2284 -0.9718 -0.0587
vn -0.0142 -0.9998 -0.0170
vn -0.2744 0.9614 0.0193
vn -0.9715 -0.2226 -0.0815
vn -0.7134 0.6989 -0.0500
vn -0.9774 0.1990 -0.0707
vn 0.8649 0.1739 -0.4708
vn 0.9774 0.1990 0.0707
vn -0.8649 0.1739 0.4708
vn 0.9774 0.1990 -0.0707
vn -0.9774 0.1990 0.0707
vn -0.8649 0.1739 -0.4708
vn 0.8649 0.1739 0.4708
vn -0.8102 -0.5851 -0.0353
vn 0.7753 -0.5303 -0.3432
vn 0.8102 -0.5851 0.0353
vn -0.7753 -0.5303 0.3432
vn -0.8102 -0.5851 0.0353
vn 0.8102 -0.5851 -0.0353
vn 0.7753 -0.5303 0.3432
vn -0.7753 -0.5303 -0.3432
vn 0.5669 0.6675 0.4828
vn -0.5669 0.6675 -0.4828
vn -0.2276 -0.9685 -0.1008
vn 0.2445 0.9103 -0.3341
vn -0.8611 -0.1973 -0.4687
vn 0.8611 -0.1973 0.4687
vn -0.2599 0.9094 -0.3247
vn -0.0181 -0.9755 -0.2192
vn 0.0733 -0.9730 -0.2187
vn 0.0414 0.9410 -0.3360
vn 0.1816 -0.9834 0.0000
vn -0.2594 0.9658 0.0000
vn 0.9750 -0.2107 -0.0706
vn -0.9750 -0.2107 0.0706
vn 0.0142 -0.9998 0.0170
vn 0.2744 0.9614 -0.0193
vn -0.2284 -0.9718 0.0587
vn -0.7737 0.6334 -0.0127
vn 0.7737 0.6334 0.0127
vn -0.5669 0.6675 0.4828
vn -0.2276 -0.9685 0.1008
vn 0.2445 0.9103 0.3341
vn -0.8611 -0.1973 0.4687
vn -0.2599 0.9094 0.3247
vn -0.0181 -0.9755 0.2192
vn 0.0733 -0.9730 0.2187
vn 0.0414 0.9410 0.3360
vn 0.9750 -0.2107 0.0706
vn 0.7737 0.6334 -0.0127
vn 0.5669 0.6675 -0.4828
vn 0.8611 -0.1973 -0.4687
vn -0.9750 -0.2107 -0.0706
vn 0.0142 -0.9998 -0.0170
vn 0.2744 0.9614 0.0193
vn -0.2284 -0.9718 -0.0587
vn -0.7737 0.6334 0.0127
vn -0.9781 0.1966 -0.0686
vn 0.8087 0.2613 -0.5270
vn 0.9781 0.1966 0.0686
vn -0.8087 0.2613 0.5270
vn 0.9781 0.1966 -0.0686
vn -0.9781 0.1966 0.0686
vn -0.8087 0.2613 -0.5270
vn 0.8087 0.2613 0.5270
vn -0.7855 -0.6153 -0.0659
vn 0.7585 -0.5477 -0.3530
vn 0.7855 -0.6153 0.0659
vn -0.7585 -0.5477 0.3530
vn -0.7855 -0.6153 0.0659
vn 0.7855 -0.6153 -0.0659
vn 0.7585 -0.5477 0.3530
vn -0.7585 -0.5477 -0.3530
usemtl Material
s off
f 43/1/1 68/2/1 80/3/1
f 74/4/2 8/5/2 69/6/2
f 56/7/3 70/8/3 82/9/3
f 76/10/4 2/11/4 67/12/4
f 61/13/5 5/14/5 20/15/5
f 63/16/6 2/17/6 26/18/6
f 60/19/7 12/20/7 22/21/7
f 62/22/8 11/23/8 28/24/8
f 22/25/4 71/26/4 73/27/4
f 27/28/2 72/29/2 75/30/2
f 29/31/2 87/32/2 92/33/2
f 23/34/4 86/35/4 90/36/4
f 30/37/4 88/38/4 91/39/4
f 98/40/9 16/41/9 85/42/9
f 24/43/2 84/44/2 89/45/2
f 96/46/10 14/47/10 83/48/10
f 18/49/2 89/45/2 87/32/2
f 85/50/4 23/34/4 90/36/4
f 6/51/4 73/27/4 70/52/4
f 60/19/11 6/53/11 56/7/11
f 61/13/12 11/23/12 58/54/12
f 72/29/2 19/55/2 74/4/2
f 17/56/4 91/39/4 86/35/4
f 83/57/2 29/31/2 92/33/2
f 4/58/2 75/30/2 68/59/2
f 62/22/13 1/60/13 55/61/13
f 63/16/14 12/20/14 57/62/14
f 71/26/4 26/63/4 76/10/4
f 54/64/15 35/65/15 48/66/15
f 53/67/16 31/68/16 46/69/16
f 49/70/17 40/71/17 36/72/17
f 47/73/18 39/74/18 34/75/18
f 66/76/19 93/77/19 97/78/19
f 50/79/20 94/80/20 95/81/20
f 49/70/21 41/82/21 53/67/21
f 48/66/15 39/74/15 51/83/15
f 43/84/22 42/85/22 54/64/22
f 52/86/23 33/87/23 40/71/23
f 79/88/24 34/75/24 77/89/24
f 81/90/25 32/91/25 78/92/25
f 69/93/26 47/94/26 79/95/26
f 7/96/27 52/86/27 21/97/27
f 4/98/28 54/64/28 27/99/28
f 10/100/29 51/83/29 19/101/29
f 9/102/30 53/67/30 25/103/30
f 15/104/31 95/81/31 84/105/31
f 8/106/32 51/83/32 47/73/32
f 9/102/33 52/86/33 49/70/33
f 3/107/34 53/67/34 46/69/34
f 10/100/35 54/64/35 48/66/35
f 93/77/36 45/108/36 96/46/36
f 32/91/37 80/109/37 78/92/37
f 67/110/38 64/111/38 81/90/38
f 13/112/39 97/78/39 88/113/39
f 42/85/15 57/62/15 35/65/15
f 31/68/40 62/22/40 55/61/40
f 40/71/41 58/54/41 36/72/41
f 39/74/42 56/7/42 34/75/42
f 94/80/43 59/114/43 98/40/43
f 41/82/21 58/54/21 62/22/21
f 35/65/15 60/19/15 39/74/15
f 42/85/22 64/111/22 63/16/22
f 33/87/23 61/13/23 40/71/23
f 34/75/44 82/9/44 77/89/44
f 77/115/45 59/114/45 37/116/45
f 13/112/46 81/117/46 66/76/46
f 78/118/47 45/108/47 38/119/47
f 15/104/48 79/95/48 50/79/48
f 66/76/49 78/118/49 38/119/49
f 50/79/50 77/115/50 37/116/50
f 71/26/4 30/37/4 17/56/4
f 68/59/2 29/31/2 14/120/2
f 72/29/2 24/43/2 18/49/2
f 70/52/4 23/34/4 16/121/4
f 75/30/2 18/49/2 29/31/2
f 73/27/4 17/56/4 23/34/4
f 30/37/4 67/12/4 13/122/4
f 82/123/51 16/41/51 59/114/51
f 24/43/2 69/6/2 15/124/2
f 80/3/52 14/47/52 45/108/52
f 33/87/53 98/125/53 65/126/53
f 88/113/54 55/127/54 1/128/54
f 31/129/55 96/46/55 46/130/55
f 84/105/56 44/131/56 7/132/56
f 95/81/57 33/133/57 44/131/57
f 97/134/58 31/68/58 55/61/58
f 3/135/2 92/33/2 25/136/2
f 86/35/4 28/137/4 11/138/4
f 5/139/4 90/36/4 20/140/4
f 87/32/2 21/141/2 9/142/2
f 46/130/59 83/48/59 3/143/59
f 89/45/2 7/144/2 21/141/2
f 65/145/60 85/42/60 5/146/60
f 91/39/4 1/147/4 28/137/4
f 20/140/4 86/35/4 11/138/4
f 25/136/2 87/32/2 9/142/2
f 43/1/61 4/148/61 68/2/61
f 74/4/2 19/55/2 8/5/2
f 56/7/62 6/53/62 70/8/62
f 76/10/4 26/63/4 2/11/4
f 61/13/63 65/126/63 5/14/63
f 63/16/64 64/111/64 2/17/64
f 60/19/14 57/62/14 12/20/14
f 62/22/12 58/54/12 11/23/12
f 22/25/4 12/149/4 71/26/4
f 27/28/2 10/150/2 72/29/2
f 29/31/2 18/49/2 87/32/2
f 23/34/4 17/56/4 86/35/4
f 30/37/4 13/122/4 88/38/4
f 98/40/65 59/114/65 16/41/65
f 24/43/2 15/124/2 84/44/2
f 96/46/66 45/108/66 14/47/66
f 18/49/2 24/43/2 89/45/2
f 85/50/4 16/121/4 23/34/4
f 6/51/4 22/25/4 73/27/4
f 60/19/67 22/21/67 6/53/67
f 61/13/68 20/15/68 11/23/68
f 72/29/2 10/150/2 19/55/2
f 17/56/4 30/37/4 91/39/4
f 83/57/2 14/120/2 29/31/2
f 4/58/2 27/28/2 75/30/2
f 62/22/69 28/24/69 1/60/69
f 63/16/70 26/18/70 12/20/70
f 71/26/4 12/149/4 26/63/4
f 54/64/15 42/85/15 35/65/15
f 53/67/71 41/82/71 31/68/71
f 49/70/21 52/86/21 40/71/21
f 47/73/72 51/83/72 39/74/72
f 66/76/73 38/119/73 93/77/73
f 50/79/74 37/116/74 94/80/74
f 49/70/75 36/72/75 41/82/75
f 48/66/15 35/65/15 39/74/15
f 43/84/76 32/91/76 42/85/76
f 52/86/77 44/151/77 33/87/77
f 79/88/78 47/73/78 34/75/78
f 81/90/79 64/111/79 32/91/79
f 69/93/80 8/152/80 47/94/80
f 7/96/81 44/151/81 52/86/81
f 4/98/82 43/84/82 54/64/82
f 10/100/35 48/66/35 51/83/35
f 9/102/33 49/70/33 53/67/33
f 15/104/83 50/79/83 95/81/83
f 8/106/84 19/101/84 51/83/84
f 9/102/85 21/97/85 52/86/85
f 3/107/86 25/103/86 53/67/86
f 10/100/87 27/99/87 54/64/87
f 93/77/88 38/119/88 45/108/88
f 32/91/89 43/84/89 80/109/89
f 67/110/90 2/17/90 64/111/90
f 13/112/91 66/76/91 97/78/91
f 42/85/15 63/16/15 57/62/15
f 31/68/71 41/82/71 62/22/71
f 40/71/21 61/13/21 58/54/21
f 39/74/72 60/19/72 56/7/72
f 94/80/92 37/116/92 59/114/92
f 41/82/93 36/72/93 58/54/93
f 35/65/15 57/62/15 60/19/15
f 42/85/94 32/91/94 64/111/94
f 33/87/95 65/126/95 61/13/95
f 34/75/96 56/7/96 82/9/96
f 77/115/97 82/123/97 59/114/97
f 13/112/98 67/153/98 81/117/98
f 78/118/99 80/3/99 45/108/99
f 15/104/100 69/93/100 79/95/100
f 66/76/101 81/117/101 78/118/101
f 50/79/102 79/95/102 77/115/102
f 71/26/4 76/10/4 30/37/4
f 68/59/2 75/30/2 29/31/2
f 72/29/2 74/4/2 24/43/2
f 70/52/4 73/27/4 23/34/4
f 75/30/2 72/29/2 18/49/2
f 73/27/4 71/26/4 17/56/4
f 30/37/4 76/10/4 67/12/4
f 82/123/103 70/154/103 16/41/103
f 24/43/2 74/4/2 69/6/2
f 80/3/104 68/2/104 14/47/104
f 33/87/105 94/155/105 98/125/105
f 88/113/106 97/78/106 55/127/106
f 31/129/107 93/77/107 96/46/107
f 84/105/108 95/81/108 44/131/108
f 95/81/109 94/80/109 33/133/109
f 97/134/110 93/156/110 31/68/110
f 3/135/2 83/57/2 92/33/2
f 86/35/4 91/39/4 28/137/4
f 5/139/4 85/50/4 90/36/4
f 87/32/2 89/45/2 21/141/2
f 46/130/111 96/46/111 83/48/111
f 89/45/2 84/44/2 7/144/2
f 65/145/112 98/40/112 85/42/112
f 91/39/4 88/38/4 1/147/4
f 20/140/4 90/36/4 86/35/4
f 25/136/2 92/33/2 87/32/2
